<svg xmlns="http://www.w3.org/2000/svg" version="1.1" xmlns:xlink="http://www.w3.org/1999/xlink" xmlns:svgjs="http://svgjs.dev/svgjs" width="1440" height="560" preserveAspectRatio="none" viewBox="0 0 1440 560"><g mask="url(&quot;#SvgjsMask1004&quot;)" fill="none"><path d="M -220.13800552669983,275 C -124.14,291.8 67.86,360.2 259.8619944733002,359 C 451.86,357.8 547.86,253.4 739.8619944733002,269 C 931.86,284.6 1027.86,440.4 1219.8619944733002,437 C 1411.86,433.6 1655.83,243.6 1699.8619944733002,252 C 1743.89,260.4 1491.97,433.6 1440,479" stroke="rgba(51, 121, 194, 0.32)" stroke-width="2"></path><path d="M -654.7473035233916,171 C -558.75,196.8 -366.75,302.6 -174.74730352339157,300 C 17.25,297.4 113.25,156.2 305.25269647660843,158 C 497.25,159.8 593.25,309 785.2526964766084,309 C 977.25,309 1134.3,129.2 1265.2526964766084,158 C 1396.2,186.8 1405.05,394 1440,453" stroke="rgba(51, 121, 194, 0.32)" stroke-width="2"></path><path d="M -183.777982231014,301 C -87.78,295.4 104.22,243.6 296.222017768986,273 C 488.22,302.4 584.22,462.8 776.222017768986,448 C 968.22,433.2 1064.22,212.6 1256.222017768986,199 C 1448.22,185.4 1699.47,402 1736.222017768986,380 C 1772.98,358 1499.24,147.2 1440,89" stroke="rgba(51, 121, 194, 0.32)" stroke-width="2"></path><path d="M -71.17496224245303,74 C 24.83,137 216.83,375.4 408.82503775754697,389 C 600.83,402.6 696.83,145.4 888.825037757547,142 C 1080.83,138.6 1176.83,363.4 1368.8250377575469,372 C 1560.83,380.6 1834.59,168.4 1848.8250377575469,185 C 1863.06,201.6 1521.77,401 1440,455" stroke="rgba(51, 121, 194, 0.32)" stroke-width="2"></path></g><defs><mask id="SvgjsMask1004"><rect width="1440" height="560" fill="#ffffff"></rect></mask></defs></svg>