<svg xmlns="http://www.w3.org/2000/svg" version="1.1" xmlns:xlink="http://www.w3.org/1999/xlink" xmlns:svgjs="http://svgjs.dev/svgjs" width="1440" height="560" preserveAspectRatio="none" viewBox="0 0 1440 560"><g mask="url(&quot;#SvgjsMask1088&quot;)" fill="none"><path d="M 0,146 C 57.6,119.6 172.8,8.6 288,14 C 403.2,19.4 460.8,171.8 576,173 C 691.2,174.2 748.8,13.2 864,20 C 979.2,26.8 1036.8,202.4 1152,207 C 1267.2,211.6 1382.4,75.8 1440,43L1440 560L0 560z" fill="rgba(24, 74, 126, 0.24)"></path><path d="M 0,300 C 72,326.6 216,436.8 360,433 C 504,429.2 576,263.4 720,281 C 864,298.6 936,495 1080,521 C 1224,547 1368,433 1440,411L1440 560L0 560z" fill="rgba(34, 100, 171, 0.25)"></path></g><defs><mask id="SvgjsMask1088"><rect width="1440" height="560" fill="#ffffff"></rect></mask></defs></svg>